<svg id="Capa_1" data-name="Capa 1" xmlns="http://www.w3.org/2000/svg" viewBox="0 0 47 51"><defs><style>.cls-1{fill:#30a7c2;}</style></defs><title>asiento-libre</title><path class="cls-1" d="M32.34,39.06H14.66A8.79,8.79,0,0,1,6.06,32L2.14,12.42a8.77,8.77,0,0,1,8.6-10.49H36.26a8.77,8.77,0,0,1,8.6,10.49L40.94,32A8.79,8.79,0,0,1,32.34,39.06ZM8.48,31.52a6.32,6.32,0,0,0,6.18,5.06H32.34a6.32,6.32,0,0,0,6.18-5.06l3.92-19.59A6.3,6.3,0,0,0,36.26,4.4H10.74a6.3,6.3,0,0,0-6.18,7.54Z"/><path class="cls-1" d="M39.29,49.07H7.71a5.86,5.86,0,1,1,0-11.71H39.29a5.86,5.86,0,0,1,0,11.71ZM7.71,39.83a3.39,3.39,0,0,0,0,6.77H39.29a3.39,3.39,0,0,0,0-6.77Z"/></svg>