<svg class="svg-icon" style="width: 1em; height: 1em;vertical-align: middle;fill: currentColor;overflow: hidden;" viewBox="0 0 1024 1024" version="1.1" xmlns="http://www.w3.org/2000/svg"><path d="M739.2 970.666667H284.8c-28.8 0-53.333333-23.466667-53.333333-53.333334V106.666667c0-28.8 23.466667-53.333333 53.333333-53.333334h454.4c28.8 0 53.333333 23.466667 53.333333 53.333334v810.666666c0 29.866667-24.533333 53.333333-53.333333 53.333334zM284.8 74.666667c-17.066667 0-32 13.866667-32 32v810.666666c0 17.066667 13.866667 32 32 32h454.4c17.066667 0 32-13.866667 32-32V106.666667c0-17.066667-13.866667-32-32-32H284.8z" fill="#251E1C" /><path d="M683.733333 322.133333H340.266667c-28.8 0-53.333333-23.466667-53.333334-53.333333v-105.6c0-28.8 23.466667-53.333333 53.333334-53.333333h343.466666c28.8 0 53.333333 23.466667 53.333334 53.333333v105.6c0 29.866667-23.466667 53.333333-53.333334 53.333333zM340.266667 132.266667c-17.066667 0-32 13.866667-32 32v105.6c0 17.066667 13.866667 32 32 32h343.466666c17.066667 0 32-13.866667 32-32v-105.6c0-17.066667-13.866667-32-32-32H340.266667zM683.733333 913.066667H340.266667c-28.8 0-53.333333-23.466667-53.333334-53.333334v-105.6c0-28.8 23.466667-53.333333 53.333334-53.333333h343.466666c28.8 0 53.333333 23.466667 53.333334 53.333333v105.6c0 29.866667-23.466667 53.333333-53.333334 53.333334zM340.266667 723.2c-17.066667 0-32 13.866667-32 32v105.6c0 17.066667 13.866667 32 32 32h343.466666c17.066667 0 32-13.866667 32-32v-105.6c0-17.066667-13.866667-32-32-32H340.266667zM721.066667 539.733333c-21.333333 0-39.466667-17.066667-39.466667-39.466666s17.066667-39.466667 39.466667-39.466667c21.333333 0 39.466667 17.066667 39.466666 39.466667s-18.133333 39.466667-39.466666 39.466666z m0-56.533333c-9.6 0-18.133333 7.466667-18.133334 18.133333s7.466667 18.133333 18.133334 18.133334 18.133333-7.466667 18.133333-18.133334-8.533333-18.133333-18.133333-18.133333z" fill="#251E1C" /><path d="M620.8 533.333333c-3.2 0-6.4-1.066667-8.533333-4.266666-4.266667-4.266667-3.2-11.733333 1.066666-14.933334l28.8-24.533333h77.866667c6.4 0 10.666667 4.266667 10.666667 10.666667s-4.266667 10.666667-10.666667 10.666666H650.666667l-23.466667 19.2c-2.133333 2.133333-4.266667 3.2-6.4 3.2z" fill="#251E1C" /></svg>